<?xml version="1.0" standalone="no"?><!DOCTYPE svg PUBLIC "-//W3C//DTD SVG 1.1//EN" "http://www.w3.org/Graphics/SVG/1.1/DTD/svg11.dtd"><svg t="1587381873505" class="icon" viewBox="0 0 1024 1024" version="1.1" xmlns="http://www.w3.org/2000/svg" p-id="1219" xmlns:xlink="http://www.w3.org/1999/xlink" width="200" height="200"><defs><style type="text/css"></style></defs><path d="M746.4 702.5c-7.9 25.3-19.9 51.4-37 78.3-138.6 218.3-509.3 45-429.6-225.2 8.1-27.6 16.3-52.8 24.5-75.7-6.1 17.9-12.2 37.1-18.3 57.7-79.7 270.2 291 443.5 429.6 225.2 13.2-20.6 23.3-40.7 30.8-60.3z" fill="#91AF12" p-id="1220"></path><path d="M746.4 702.5c-7.6 19.6-17.7 39.7-30.7 60.3-138.6 218.3-509.3 45-429.6-225.2 6.1-20.5 12.2-39.8 18.3-57.7C376.5 278.2 448 249.4 466.8 268c20.9 20.8 57.1 31.2 57.1 31.2s60.8-62.4 95.4 17.3c30.4 69.9 183.3 206.3 127.1 386z" fill="#B2DD12" p-id="1221"></path><path d="M757.2 668.4c-2.8 11.2-6.3 22.6-10.8 34.1-7.6 19.6-17.7 39.7-30.7 60.3-133.3 210-481.4 57.7-436.8-194.7 1-4.1 2.2-8.3 3.4-12.5 6.1-20.5 12.2-39.8 18.3-57.7C374.7 279.9 450 248.8 469.3 268c20.9 20.8 57.1 31.2 57.1 31.2s60.8-62.4 95.4 17.3c28.5 65.4 164.1 189.1 135.4 351.9z" fill="#AED81F" p-id="1222"></path><path d="M684.4 553.2c-1.8 0-3.6-1-4.5-2.7-10.1-20-22.1-40.3-37.9-64.1-0.8-1.2-1.6-2.5-2.5-3.7-1.5-2.3-0.9-5.4 1.4-6.9s5.4-0.9 6.9 1.4c0.8 1.2 1.7 2.5 2.5 3.7 16 24.1 28.2 44.7 38.5 65.1 1.2 2.5 0.3 5.5-2.2 6.7-0.7 0.3-1.4 0.5-2.2 0.5zM631.7 467.2c-1.6 0-3.1-0.8-4.1-2.2-3.4-4.9-6.7-9.7-10-14.3-5.4-7.7-10.5-15-15.2-22-1.5-2.3-1-5.4 1.3-6.9s5.4-1 6.9 1.3c4.7 6.9 9.8 14.2 15.1 21.9 3.3 4.7 6.6 9.5 10 14.4 1.6 2.3 1 5.4-1.3 7-0.7 0.5-1.7 0.8-2.7 0.8z" fill="#FAFBFC" p-id="1223"></path><path d="M752.9 669.1c-3 17-3.4 33.6-10.3 51.4-7.6 19.6-17.7 39.7-30.7 60.3-136.4 214.9-497.9 50.3-433-212.7-44.5 252.4 303.5 404.7 436.8 194.7 13.1-20.6 23.2-40.7 30.7-60.3 4.5-11.5 3.7-22.2 6.5-33.4z" fill="#57661A" p-id="1224"></path><path d="M604.9 139c-25.6 1-51.3-3.3-75-13.3-3.8-1.6-8-1.1-10.3 2.7-1.9 3.1-1 8.7 2.7 10.3 7.8 3.3 15.8 6.1 23.9 8.4-19.8 13.2-29.2 38.5-31.3 62.1-2.9 33.2 7 70.1-9.8 100.8-4.6 8.5 8.3 16 13 7.6 16.2-29.5 10.9-63.1 11.3-95.2 0.3-26 7.7-60.1 36.8-68 1.6-0.4 2.8-1.2 3.6-2.2 11.6 1.7 23.3 2.4 35.2 1.9 9.6-0.5 9.6-15.5-0.1-15.1z" fill="#36485E" p-id="1225"></path><path d="M522 899.5c-37.1 0-75.3-8.5-111.1-25-40.2-18.4-75.5-45.9-102.1-79.5-50.9-64.3-65.7-144.5-41.6-226.1 28.3-96 59.8-171.2 93.7-223.6 34.9-54 62.4-67.7 75.7-71.1 10.7-2.7 19.9-1 25.9 5 16.5 16.5 43.7 26.3 52.3 29.1 7.4-6.8 31.6-26.6 57.6-21.9 18.1 3.3 32.8 17.7 43.8 42.8 7.1 16.4 21.5 37.1 38.2 61 32.2 46.1 72.2 103.5 91 172.1 10.3 37.5 13 74.8 8.1 111-5.7 41.9-21.7 83.8-47.7 124.8-13.8 21.7-30.4 40.4-49.3 55.5-2.2 1.7-5.3 1.4-7-0.8-1.7-2.2-1.4-5.3 0.8-7 18-14.4 33.9-32.2 47.1-53.1 107.5-169.3 12-306.2-51.2-396.9-17-24.4-31.7-45.4-39.2-62.7-9.5-21.8-21.7-34.3-36.4-37-25.4-4.6-50.6 20.9-50.9 21.2l-2.1 2.1-2.9-0.8c-1.5-0.4-37.7-11-59.3-32.5-3.4-3.4-9.2-4.2-16.4-2.4-9.5 2.4-35.4 13.8-69.7 66.9-33.4 51.5-64.5 125.9-92.5 221-23.1 78.3-8.9 155.4 39.9 217 51.8 65.4 137.4 104.8 218 100.3 2.8-0.1 5.1 2 5.3 4.7 0.2 2.8-2 5.1-4.7 5.3-4.4 0.5-8.8 0.6-13.3 0.6z" fill="#36485E" p-id="1226"></path><path d="M556.2 897c-2.4 0-4.6-1.8-4.9-4.3-0.4-2.7 1.5-5.3 4.2-5.7 0.1 0 0.5-0.1 1.2-0.2 1.2-0.2 12.1-2.2 17.2-3.4 2.7-0.7 5.4 1 6 3.7 0.7 2.7-1 5.4-3.7 6-5.3 1.3-15.8 3.2-17.8 3.5-0.9 0.2-1.4 0.2-1.5 0.3-0.2 0-0.4 0.1-0.7 0.1z" fill="#36485E" p-id="1227"></path><path d="M595.2 887.2c-2.1 0-4-1.3-4.7-3.3-0.9-2.6 0.4-5.5 3-6.4 12.9-4.6 25.4-10.5 37-17.6 2.4-1.4 5.4-0.7 6.9 1.7 1.4 2.4 0.7 5.4-1.7 6.9-12.2 7.5-25.3 13.7-38.9 18.5-0.5 0.1-1 0.2-1.6 0.2z" fill="#36485E" p-id="1228"></path></svg>